<svg xmlns="http://www.w3.org/2000/svg" viewBox="0 0 920 480">
  <rect width="920" height="480" rx="28" fill="#111c22"/>
  <g stroke="#293b43" stroke-width="1">
    <path d="M60 96h800M60 200h800M60 304h800M60 408h800"/>
    <path d="M164 40v400M344 40v400M524 40v400M704 40v400"/>
  </g>
  <g font-family="Inter, Arial, sans-serif">
    <text x="60" y="56" font-size="18" font-weight="700" fill="#e8f2f2">MICOS pipeline overview</text>
    <text x="60" y="82" font-size="13" fill="#a8c1c3">From raw FASTQ to interpretable microbiome outputs</text>
  </g>
  <g>
    <rect x="60" y="120" width="180" height="220" rx="20" fill="#18262d" stroke="#31424a"/>
    <text x="84" y="160" font-family="Inter, Arial, sans-serif" font-size="13" letter-spacing=".12em" fill="#59d0c2">STAGE 01</text>
    <text x="84" y="192" font-family="Inter, Arial, sans-serif" font-size="26" font-weight="700" fill="#eff7f7">QC</text>
    <text x="84" y="222" font-family="Inter, Arial, sans-serif" font-size="14" fill="#b7cdcf">FastQC, KneadData, trimming, host depletion.</text>
    <text x="84" y="288" font-family="Inter, Arial, sans-serif" font-size="13" fill="#59d0c2">Output</text>
    <text x="84" y="312" font-family="Inter, Arial, sans-serif" font-size="14" fill="#d7e7e7">clean reads</text>
  </g>
  <g>
    <rect x="280" y="120" width="180" height="220" rx="20" fill="#18262d" stroke="#31424a"/>
    <text x="304" y="160" font-family="Inter, Arial, sans-serif" font-size="13" letter-spacing=".12em" fill="#59d0c2">STAGE 02</text>
    <text x="304" y="192" font-family="Inter, Arial, sans-serif" font-size="26" font-weight="700" fill="#eff7f7">Taxonomy</text>
    <text x="304" y="222" font-family="Inter, Arial, sans-serif" font-size="14" fill="#b7cdcf">Kraken2, kraken-biom, Krona summaries.</text>
    <text x="304" y="288" font-family="Inter, Arial, sans-serif" font-size="13" fill="#59d0c2">Output</text>
    <text x="304" y="312" font-family="Inter, Arial, sans-serif" font-size="14" fill="#d7e7e7">reports, biom, krona</text>
  </g>
  <g>
    <rect x="500" y="120" width="180" height="220" rx="20" fill="#18262d" stroke="#31424a"/>
    <text x="524" y="160" font-family="Inter, Arial, sans-serif" font-size="13" letter-spacing=".12em" fill="#59d0c2">STAGE 03</text>
    <text x="524" y="192" font-family="Inter, Arial, sans-serif" font-size="26" font-weight="700" fill="#eff7f7">Diversity</text>
    <text x="524" y="222" font-family="Inter, Arial, sans-serif" font-size="14" fill="#b7cdcf">QIIME2 metrics, alpha and beta views, metadata joins.</text>
    <text x="524" y="288" font-family="Inter, Arial, sans-serif" font-size="13" fill="#59d0c2">Output</text>
    <text x="524" y="312" font-family="Inter, Arial, sans-serif" font-size="14" fill="#d7e7e7">ordination and tables</text>
  </g>
  <g>
    <rect x="720" y="120" width="140" height="220" rx="20" fill="#18262d" stroke="#31424a"/>
    <text x="744" y="160" font-family="Inter, Arial, sans-serif" font-size="13" letter-spacing=".12em" fill="#59d0c2">STAGE 04</text>
    <text x="744" y="192" font-family="Inter, Arial, sans-serif" font-size="26" font-weight="700" fill="#eff7f7">Report</text>
    <text x="744" y="222" font-family="Inter, Arial, sans-serif" font-size="14" fill="#b7cdcf">Functional outputs and final summary views.</text>
  </g>
  <g fill="none" stroke="#59d0c2" stroke-width="4" stroke-linecap="round">
    <path d="M240 230h40"/>
    <path d="M460 230h40"/>
    <path d="M680 230h40"/>
  </g>
  <g fill="#59d0c2">
    <path d="M274 221l16 9-16 9z"/>
    <path d="M494 221l16 9-16 9z"/>
    <path d="M714 221l16 9-16 9z"/>
  </g>
</svg>
